<svg xmlns="http://www.w3.org/2000/svg" width="793.701" height="1122.52" viewBox="0 0 793.701 1122.52"><defs><mask id="mask_a" maskUnits="userSpaceOnUse"><path d="M0 841.89h595.28V0H0Z" fill="white" stroke="none"/></mask><mask id="mask_b" maskUnits="userSpaceOnUse"><path d="M0 841.89h595.28V0H0Z" fill="white" stroke="none"/></mask><mask id="mask_c" maskUnits="userSpaceOnUse"><path d="M0 841.89h595.28V0H0Z" fill="white" stroke="none"/></mask></defs><g transform="matrix(1.33 0 0 -1.33 0 1122.52)" mask="url(#mask_a)"><path d="M219.44 645.48l-1.41-1.58-0.93-1.05A98 98 0 0 0 221.94 648.11L219.44 645.48m3.66 3.77l-0.15-0.17a102 102 0 0 0 32.06 21.04q0.04 0.08 0.09 0.13a102 102 0 0 1-32-21m33.65 21.68l-0.09-0.13c12.5 4.98 25.5 7.48 38.38 7.71l0.02 0.12a109 109 0 0 1-38.31-7.7m40 7.72l-0.02-0.12c12.85 0.04 25.54-2.17 37.42-6.4l-0.05 0.14a111 111 0 0 1-37.35 6.38m38.9-6.95l0.05-0.13a106 106 0 0 0 32.27-18.97l-0.1 0.16a106 106 0 0 1-32.21 18.94M369.11 651.68l0.1-0.17a99 99 0 0 0 16.4-18.78l-1.4 2.06-0.48 0.66c-6.85 8.79-7.12 9.13-14.62 16.23" style="fill:none;stroke:#1d1d1b;stroke-width:2;stroke-linecap:butt;stroke-linejoin:miter;stroke-miterlimit:10;stroke-dasharray:none;stroke-opacity:1"/><path d="M394.6 613.53v-0.15L394.57 613.23A93 93 0 0 0 403.2 576.8l0.01 0.15A93 93 0 0 1 394.6 613.53m8.63-38.19v-0.15l-0.02-0.15q0.03-3.75-0.24-7.5l0.09 1.39 0.07 1.37q0.12 2.52 0.1 5.04m-211.02 6.24l-0.08-1.36a93 93 0 0 0 6.62 30.18v0.15l0.02 0.16a93 93 0 0 1-6.47-27.74l-0.1-1.39m7.17 30.6v-0.15l-0.01-0.15a97 97 0 0 0 20.5 30.48l0.01 0.15 0.01 0.16a97 97 0 0 1-20.5-30.49m21.68 31.65v-0.15l-0.02-0.15a104 104 0 0 0 32.7 21.46v0.15l0.01 0.15a104 104 0 0 1-32.69-21.46m34.38 22.15l-0.01-0.15-0.01-0.15a111 111 0 0 0 39.14 7.87l0.02 0.3a111 111 0 0 1-39.14-7.87m40.86 7.89v-0.15l-0.02-0.15a113 113 0 0 0 38.17-6.52l0.01 0.15v0.15a113 113 0 0 1-38.16 6.52m39.76-7.1l-0.01-0.15-0.01-0.15a108 108 0 0 0 32.9-19.35l0.01 0.15 0.01 0.15a108 108 0 0 1-32.9 19.35m34.18-20.47l-0.01-0.15-0.01-0.15A100 100 0 0 0 393.89 614.7l0.01 0.14 0.01 0.15a100 100 0 0 1-23.67 31.31" style="fill:none;stroke:#1d1d1b;stroke-width:2;stroke-linecap:butt;stroke-linejoin:miter;stroke-miterlimit:10;stroke-dasharray:none;stroke-opacity:1"/><path d="M392.3 605.9l-0.18-0.35a91 91 0 0 0 8.42-35.8l0.2 0.28A91 91 0 0 1 392.3 605.9m8.46-37.44l-0.2-0.29A90 90 0 0 0 393.9 533.43l0.19 0.22a91 91 0 0 1 6.68 34.8M393.48 532.22l-0.19-0.23a94 94 0 0 0-17.45-26.94l2.34 2.63a94 94 0 0 1 15.3 24.54m-182.4-16.48l0.46-0.65a96 96 0 0 0-8.36 14.02l-0.15 0.22a96 96 0 0 1 6.62-11.52l1.42-2.07M202.3 530.85l0.15-0.22a91 91 0 0 0-8.54 35.82l-0.17 0.28c0.35-12 3.12-24.17 8.56-35.88m-8.59 37.46l0.17-0.29a90 90 0 0 0 6.56 34.77l-0.15 0.34a91 91 0 0 1-6.58-34.82m7.17 36.27l0.16-0.35a95 95 0 0 0 20.07 29.84l-0.12 0.4a95 95 0 0 1-20.1-29.9m21.26 31.04l0.11-0.4a102 102 0 0 0 32 21l-0.06 0.44a102 102 0 0 1-32.05-21.04m33.7 21.72l0.06-0.44a109 109 0 0 0 38.3 7.7l0.02 0.45a109 109 0 0 1-38.38-7.71m40.07 7.73l-0.01-0.45c12.83 0.04 25.5-2.17 37.35-6.38l0.08 0.44a111 111 0 0 1-37.42 6.4m38.98-6.97l-0.08-0.44a106 106 0 0 0 32.2-18.94l0.14 0.4A106 106 0 0 1 334.9 658.1m33.51-20.07l-0.14-0.4A98 98 0 0 0 391.44 606.98l0.18 0.36a98 98 0 0 1-23.2 30.7" style="fill:none;stroke:#1d1d1b;stroke-width:2;stroke-linecap:butt;stroke-linejoin:miter;stroke-miterlimit:10;stroke-dasharray:none;stroke-opacity:1"/><path d="M386.32 597.28l-0.33-0.39a86 86 0 0 0 7.91-33.64l0.36 0.27A86 86 0 0 1 386.32 597.28m7.96-35.24l-0.35-0.26a85 85 0 0 0-6.27-32.65l0.33 0.15a85 85 0 0 1 6.3 32.76M387.42 527.92l-0.34-0.14a89 89 0 0 0-18.96-28l0.27 0.05A89 89 0 0 1 387.43 527.92m-20.12-29.17l-0.26-0.04a96 96 0 0 0-30.14-19.65l0.15-0.03A96 96 0 0 1 367.32 498.75m-31.8-20.35l-0.14 0.03a102 102 0 0 0-36-7.13l0.02-0.06c12.1 0.2 24.35 2.5 36.13 7.16m-37.72-7.17l-0.02 0.06a104 104 0 0 0-35.09 6.1l-0.1-0.05c11.17-4 23.1-6.11 35.2-6.1m-36.67 6.64l0.11 0.04a100 100 0 0 0-30.2 17.88q-0.12 0-0.22 0.03a100 100 0 0 1 30.31-17.95m-31.47 18.97l0.22-0.03a92 92 0 0 0-21.4 28.25l-0.3 0.13a92 92 0 0 1 21.48-28.35m-22.16 29.8l0.3-0.14a86 86 0 0 0-8.03 33.64l-0.32 0.26a86 86 0 0 1 8.05-33.77m-8.08 35.25l0.32-0.26a85 85 0 0 0 6.17 32.67l-0.3 0.37a85 85 0 0 1-6.2-32.78m6.76 34.15l0.3-0.39A89 89 0 0 0 225.32 623.69l-0.23 0.48a89 89 0 0 1-18.93-28.13m20.01 29.2l0.24-0.48a96 96 0 0 0 30.05 19.74l-0.12 0.55a96 96 0 0 1-30.17-19.8m31.73 20.44l0.12-0.56a102 102 0 0 0 35.99 7.23v0.59a103 103 0 0 1-36.11-7.26m37.7 7.27v-0.58a104 104 0 0 0 35.1-6l0.13 0.57a104 104 0 0 1-35.22 6.01m36.68-6.55l-0.14-0.56a100 100 0 0 0 30.26-17.8l0.25 0.5a100 100 0 0 1-30.37 17.86m31.55-18.89l-0.26-0.49A92 92 0 0 0 385.36 598.24l0.32 0.4a92 92 0 0 1-21.84 28.88" style="fill:none;stroke:#1d1d1b;stroke-width:2;stroke-linecap:butt;stroke-linejoin:miter;stroke-miterlimit:10;stroke-dasharray:none;stroke-opacity:1"/><path d="M377.07 587.96l-0.46-0.4a77 77 0 0 0 7.1-30.24l0.51 0.24A77 77 0 0 1 377.07 587.96m7.17-31.74l-0.5-0.23a76 76 0 0 0-5.63-29.34l0.47 0.07a77 77 0 0 1 5.66 29.5M378.07 525.49l-0.47-0.06A80 80 0 0 0 360.57 500.27l0.37-0.08A80 80 0 0 1 378.07 525.49m-18.12-26.26l-0.37 0.08a86 86 0 0 0-27.09-17.67l0.22-0.18a87 87 0 0 1 27.24 17.76m-28.63-18.32l-0.21 0.18a92 92 0 0 0-32.36-6.4l0.03-0.23a92 92 0 0 1 32.54 6.45m-33.97-6.46l-0.02 0.22a94 94 0 0 0-31.54 5.48l-0.16-0.2a94 94 0 0 1 31.72-5.5m-33.04 5.99l0.17 0.19a90 90 0 0 0-27.15 16.07l-0.31-0.1a90 90 0 0 1 27.3-16.16m-28.35 17.09l0.32 0.09A82 82 0 0 0 217.07 522.99l-0.43 0.05a83 83 0 0 1 19.33-25.52m-19.95 26.83l0.43-0.06a77 77 0 0 0-7.22 30.24l-0.47 0.22a77 77 0 0 1 7.26-30.4m-7.29 31.74l0.48-0.23a76 76 0 0 0 5.54 29.36l-0.44 0.4a77 77 0 0 1-5.58-29.53m6.08 30.75l0.44-0.4a80 80 0 0 0 16.96 25.2l-0.35 0.53a80 80 0 0 1-17.05-25.33m18.03 26.3l0.34-0.54a86 86 0 0 0 27.02 17.73l-0.2 0.65a87 87 0 0 1-27.16-17.84m28.57 18.41l0.18-0.65a92 92 0 0 0 32.35 6.5v0.7a92 92 0 0 1-32.53-6.55m33.96 6.56v-0.69a94 94 0 0 0 31.54-5.39l0.18 0.66a94 94 0 0 1-31.72 5.42m33.04-5.9l-0.19-0.65a89 89 0 0 0 27.2-16l0.34 0.57a90 90 0 0 1-27.35 16.08m28.41-17.01l-0.35-0.56A82 82 0 0 0 376.04 588.76l0.46 0.42a83 83 0 0 1-19.68 26.02" style="fill:none;stroke:#1d1d1b;stroke-width:2;stroke-linecap:butt;stroke-linejoin:miter;stroke-miterlimit:10;stroke-dasharray:none;stroke-opacity:1"/><path d="M364.96 578.24l-0.57-0.42a65 65 0 0 0 6.05-25.74l0.62 0.21A66 66 0 0 1 364.96 578.24m6.12-27.09l-0.62-0.2A65 65 0 0 0 365.66 525.98l0.59-0.01A66 66 0 0 1 371.08 551.14M365.81 524.92l-0.58 0.02a68 68 0 0 0-14.5-21.42l0.46-0.2A69 69 0 0 1 365.81 524.93M350.36 502.5l-0.46 0.2a73 73 0 0 0-23.06-15.03l0.27-0.33c9 3.73 16.81 8.93 23.25 15.16m-24.44-15.64l-0.26 0.33a78 78 0 0 0-27.54-5.46l0.03-0.37c9.3 0.14 18.72 1.92 27.77 5.5m-29-5.51l-0.01 0.37a80 80 0 0 0-26.85 4.66l-0.2-0.33a80 80 0 0 1 27.07-4.7m-28.2 5.11l0.22 0.33a76 76 0 0 0-23.11 13.69l-0.4-0.22a77 77 0 0 1 23.3-13.8m-24.2 14.59l0.41 0.2c-6.7 6-12.3 13.26-16.37 21.62l-0.54-0.04a71 71 0 0 1 16.5-21.78m-17.03 22.9l0.55 0.02a65.5 65.5 0 0 0-6.14 25.74l-0.6 0.19a66 66 0 0 1 6.19-25.95m-6.22 27.09l0.6-0.2a65 65 0 0 0 4.72 25l-0.56 0.4a66 66 0 0 1-4.76-25.2m5.2 26.24l0.55-0.4a68 68 0 0 0 14.43 21.44l-0.44 0.59A69 69 0 0 1 226.47 577.28m15.39 22.46l0.43-0.6a73 73 0 0 0 23 15.1l-0.24 0.72a74 74 0 0 1-23.2-15.22m24.4 15.7l0.23-0.72a78 78 0 0 0 27.53 5.54v0.77a79 79 0 0 1-27.77-5.58m29 5.6l-0.01-0.78a80 80 0 0 0 26.85-4.58l0.22 0.73a80 80 0 0 1-27.07 4.62m28.2-5.03l-0.23-0.73a76 76 0 0 0 23.15-13.62l0.42 0.62a77 77 0 0 1-23.34 13.73m24.25-14.52l-0.44-0.61A70 70 0 0 0 363.9 578.84l0.57 0.43a71 71 0 0 1-16.8 22.2" style="fill:none;stroke:#1d1d1b;stroke-width:2;stroke-linecap:butt;stroke-linejoin:miter;stroke-miterlimit:10;stroke-dasharray:none;stroke-opacity:1"/><path d="M350.4 568.42l-0.68-0.42a52 52 0 0 0 4.78-20.3l0.73 0.17A52 52 0 0 1 350.4 568.42m4.85-21.45l-0.74-0.16A51 51 0 0 0 350.73 527.12l0.69-0.08a52 52 0 0 1 3.83 19.94M351.08 526.2l-0.7 0.1a54 54 0 0 0-11.43-16.9l0.54-0.3A55 55 0 0 1 351.08 526.2m-12.25-17.75l-0.54 0.31a58 58 0 0 0-18.18-11.86l0.3-0.46a59 59 0 0 1 18.42 12m-19.35-12.38l-0.3 0.47a62 62 0 0 0-21.72-4.3q0-0.27 0.03-0.53a62 62 0 0 1 21.99 4.36m-22.96-4.36l-0.02 0.52a63 63 0 0 0-21.17 3.67l-0.24-0.47a64 64 0 0 1 21.43-3.72m-22.32 4.05l0.25 0.47a60 60 0 0 0-18.22 10.79l-0.48-0.34A61 61 0 0 1 274.2 495.75m-19.16 11.54l0.49 0.33a55 55 0 0 0-12.9 17.04l-0.66-0.11a56 56 0 0 1 13.07-17.26m-13.49 18.14l0.66 0.1a52 52 0 0 0-4.84 20.3l-0.72 0.15a52 52 0 0 1 4.9-20.55m-4.92 21.45l0.72-0.16a51 51 0 0 0 3.72 19.71l-0.67 0.4a52 52 0 0 1-3.77-19.95m4.1 20.78l0.68-0.4a54 54 0 0 0 11.38 16.9l-0.53 0.63A54 54 0 0 1 240.74 567.66m12.18 17.78l0.52-0.63a58 58 0 0 0 18.14 11.9l-0.3 0.79a59 59 0 0 1-18.36-12.06m19.31 12.44l0.28-0.78a62 62 0 0 0 21.72 4.37l-0.01 0.83a62 62 0 0 1-21.99-4.42m22.96 4.43v-0.83a63 63 0 0 0 21.17-3.62l0.26 0.8a64 64 0 0 1-21.43 3.65m22.33-3.98l-0.28-0.8A60 60 0 0 0 335.5 586.81l0.5 0.66A61 61 0 0 1 317.52 598.32m19.2-11.5l-0.52-0.65A55 55 0 0 0 349.34 568.82l0.67 0.43a56 56 0 0 1-13.3 17.59" style="fill:none;stroke:#1d1d1b;stroke-width:2;stroke-linecap:butt;stroke-linejoin:miter;stroke-miterlimit:10;stroke-dasharray:none;stroke-opacity:1"/><path d="M333.76 558.78l-0.75-0.4a36 36 0 0 0 3.3-14.07l0.82 0.13A36.5 36.5 0 0 1 333.76 558.78m3.38-14.97l-0.81-0.11c0.04-4.7-0.87-9.33-2.62-13.65l0.76-0.16a36 36 0 0 1 2.67 13.92m-2.9-14.5l-0.77 0.17A37 37 0 0 0 325.56 517.78l0.6-0.4A38 38 0 0 1 334.24 529.31m-8.55-12.4l-0.59 0.42a40 40 0 0 0-12.6-8.22l0.34-0.58a41 41 0 0 1 12.85 8.39m-13.5-8.65l-0.33 0.58c-4.9-1.94-10-2.9-15.05-2.98l0.02-0.64a44 44 0 0 1 15.35 3.04m-16.02-3.05l-0.02 0.65c-5.04 0-10.01 0.87-14.67 2.54l-0.27-0.59a44 44 0 0 1 14.96-2.6m-15.59 2.83l0.3 0.59a42 42 0 0 0-12.63 7.47l-0.55-0.44a43 43 0 0 1 12.88-7.62m-13.37 8.06l0.55 0.43a38 38 0 0 0-8.94 11.8l-0.73-0.19a39 39 0 0 1 9.12-12.04m-9.41 12.66l0.73 0.18a36 36 0 0 0-3.35 14.07l-0.8 0.1c0.13-4.8 1.24-9.67 3.42-14.35m-3.44 14.97l0.8-0.1a36 36 0 0 0 2.58 13.65l-0.75 0.38a36 36 0 0 1-2.63-13.93m2.87 14.51l0.75-0.4a37 37 0 0 0 7.88 11.73l-0.59 0.62A38 38 0 0 1 257.21 558.25m8.5 12.41l0.59-0.63A40 40 0 0 0 278.86 578.28l-0.33 0.8a41 41 0 0 1-12.81-8.42m13.47 8.69l0.32-0.8a43 43 0 0 0 15.05 3.02l-0.02 0.86a44 44 0 0 1-15.35-3.08m16.03 3.09v-0.87c5.04 0.02 10.02-0.85 14.67-2.5l0.3 0.81a44 44 0 0 1-14.97 2.56m15.59-2.78l-0.3-0.82a42 42 0 0 0 12.64-7.44l0.56 0.67a43 43 0 0 1-12.9 7.59m13.4-8.03l-0.57-0.65A38 38 0 0 0 332.74 558.94l0.75 0.41a39 39 0 0 1-9.28 12.28" style="fill:none;stroke:#1d1d1b;stroke-width:2;stroke-linecap:butt;stroke-linejoin:miter;stroke-miterlimit:10;stroke-dasharray:none;stroke-opacity:1"/><path d="M315.46 549.62l-0.81-0.38A18 18 0 0 0 316.34 542.06l0.88 0.07C317.16 544.63 316.59 547.18 315.46 549.62m1.77-7.82l-0.89-0.05a18 18 0 0 0-1.34-6.97l0.83-0.24c0.94 2.3 1.42 4.76 1.4 7.26M315.71 534.24l-0.83 0.25c-0.93-2.2-2.3-4.23-4.04-5.98l0.65-0.5a20 20 0 0 1 4.22 6.23m-4.47-6.47l-0.64 0.51a21 21 0 0 0-6.43-4.2l0.37-0.68a21 21 0 0 1 6.7 4.37m-7.05-4.51l-0.35 0.7a22 22 0 0 0-7.68-1.53l0.02-0.76c2.69 0.04 5.4 0.55 8.01 1.59m-8.36-1.6l-0.01 0.77c-2.58 0-5.12 0.45-7.5 1.3l-0.3-0.7a23 23 0 0 1 7.8-1.36m-8.13 1.47l0.32 0.7a21 21 0 0 0-6.44 3.82l-0.6-0.54a22 22 0 0 1 6.72-3.98m-6.98 4.2l0.6 0.54a20 20 0 0 0-4.56 6.03l-0.8-0.28a20 20 0 0 1 4.76-6.28m-4.9 6.6l0.8 0.27a18 18 0 0 0-1.72 7.18l-0.88 0.04c0.08-2.5 0.66-5.04 1.8-7.48m-1.8 7.81l0.88-0.05c-0.03 2.4 0.42 4.76 1.31 6.97l-0.82 0.35a19 19 0 0 1-1.37-7.27m1.5 7.57l0.81-0.36a19 19 0 0 0 4.03 5.98l-0.65 0.62a20 20 0 0 1-4.2-6.24m4.44 6.48q0.33-0.3 0.64-0.63a21 21 0 0 0 6.42 4.22l-0.37 0.8a21 21 0 0 1-6.69-4.39m7.04 4.54l0.35-0.82c2.5 1 5.1 1.5 7.68 1.55l-0.02 0.88c-2.69-0.05-5.4-0.57-8.01-1.61m8.36 1.6l0.01-0.87c2.57 0 5.12-0.43 7.5-1.28l0.3 0.83a23 23 0 0 1-7.8 1.33m8.13-1.45l-0.32-0.82a21 21 0 0 0 6.45-3.8l0.6 0.66a22 22 0 0 1-6.73 3.96m7-4.2l-0.61-0.64A20 20 0 0 0 314.51 549.52l0.8 0.39a20 20 0 0 1-4.84 6.4" style="fill:none;stroke:#1d1d1b;stroke-width:2;stroke-linecap:butt;stroke-linejoin:miter;stroke-miterlimit:10;stroke-dasharray:none;stroke-opacity:1"/><path d="M316.34 542.06l0.88 0.07a293 293 0 0 1 19.91 2.3 240 240 0 0 1 18.1 3.44 177 177 0 0 1 15.21 4.22l0.63 0.2a113 113 0 0 1 13.16 5.27 62 62 0 0 1 10.03 5.96 29 29 0 0 1 6.47 6.5 13.6 13.6 0 0 1 2.46 6.63v0.15a8 8 0 0 1 0.03 0.96l0.03-1.8-0.02-0.62v-0.15l-0.01-0.15a13.4 13.4 0 0 0-2.66-6.87 28 28 0 0 0-6.63-6.4 60 60 0 0 0-9.68-5.55l-0.5-0.23A111 111 0 0 0 370.46 550.96a175 175 0 0 0-15.95-4.15 238 238 0 0 0-18.18-3.11A291 291 0 0 0 316.34 541.74a324 324 0 0 0-20.77-0.64Q306.23 541.26 316.34 542.06" style="fill:none;stroke:#1d1d1b;stroke-width:2;stroke-linecap:butt;stroke-linejoin:miter;stroke-miterlimit:10;stroke-dasharray:none;stroke-opacity:1"/><path d="M315 534.78l0.83-0.24a269 269 0 0 1 18.63-4.65q8.56-1.8 16.26-2.77l0.69-0.09A137 137 0 0 1 366.24 525.98a79 79 0 0 1 12.34 0.74 38 38 0 0 1 9.4 2.56 16 16 0 0 1 6.09 4.37q1 1.23 1.58 2.67l-0.07-0.2-0.6-1.42a10 10 0 0 0-1.7-2.71A16 16 0 0 0 387.08 527.78a37 37 0 0 0-9.01-2.28l-0.47-0.06a77 77 0 0 0-12.37-0.5q-6.56 0.22-14.17 1.27l-0.68 0.1A203 203 0 0 0 333.46 529.48Q324.93 531.45 315.7 534.24l-0.82 0.25a322 322 0 0 0-19.31 6.61Q305.53 537.51 315 534.78" style="fill:none;stroke:#1d1d1b;stroke-width:2;stroke-linecap:butt;stroke-linejoin:miter;stroke-miterlimit:10;stroke-dasharray:none;stroke-opacity:1"/><path d="M310.84 528.51l0.65-0.5q7.29-5.64 14.06-10.23l0.6-0.4a193 193 0 0 1 12.8-7.97l0.54-0.3q6.03-3.38 11.24-5.58l0.46-0.2a55 55 0 0 1 9.38-3.06l0.37-0.08a21 21 0 0 1 7.46-0.37 8 8 0 0 1 4.52 2.17l-1.23-1.21a8 8 0 0 0-4.64-2.07 21 21 0 0 0-7.1 0.52l-0.36 0.08a55 55 0 0 0-9.24 3.2l-0.45 0.2a114 114 0 0 0-11.61 6.05c-3.97 2.34-8.2 5.07-12.6 8.16l-0.6 0.41Q318.44 522.01 311.25 527.77l-0.64 0.51q-7.33 5.9-15.03 12.82A362 362 0 0 1 310.84 528.51" style="fill:none;stroke:#1d1d1b;stroke-width:2;stroke-linecap:butt;stroke-linejoin:miter;stroke-miterlimit:10;stroke-dasharray:none;stroke-opacity:1"/><path d="M304.17 524.09l0.37-0.7a386 386 0 0 1 7.95-14.27l0.34-0.58a242 242 0 0 1 7.27-11.63l0.31-0.46q3.44-5.1 6.43-8.78l0.26-0.32a46 46 0 0 1 5.61-5.88q2.4-2.02 4.2-2.41l0.15-0.03c0.5 0.01 1.17-0.02 1.63 0.14l-0.26-0.11-1.37-0.55a2.7 2.7 0 0 0-1.7-0.07q-1.72 0.41-4.04 2.46l-0.2 0.19a47 47 0 0 0-5.2 5.78q-0.14 0.16-0.26 0.33A126 126 0 0 0 319.17 496.53a248 248 0 0 0-7 11.74l-0.33 0.59Q308.17 515.46 304.19 523.26l-0.35 0.7A554 554 0 0 0 295.57 541.09Q299.97 532.02 304.17 524.09" style="fill:none;stroke:#1d1d1b;stroke-width:2;stroke-linecap:butt;stroke-linejoin:miter;stroke-miterlimit:10;stroke-dasharray:none;stroke-opacity:1"/><path d="M296.16 522.43l0.03-0.76q0.3-8.54 0.6-15.8l0.04-0.64q0.3-7.2 0.63-13 0-0.27 0.03-0.52 0.3-5.74 0.63-9.97l0.02-0.38a161 161 0 0 1 0.65-6.9q0.3-2.46 0.58-3.16l0.02-0.06 0.19-0.2-1.63-0.01q-0.07 0-0.15 0.2l-0.02 0.06q-0.22 0.7-0.43 3.15l-0.01 0.22a202 202 0 0 0-0.44 7.07q-0.2 4.23-0.38 9.97l-0.02 0.52q-0.18 5.8-0.35 13l-0.02 0.65a2510 2510 0 0 0-0.55 35.23Q295.86 531.17 296.16 522.43" style="fill:none;stroke:#1d1d1b;stroke-width:2;stroke-linecap:butt;stroke-linejoin:miter;stroke-miterlimit:10;stroke-dasharray:none;stroke-opacity:1"/><path d="M288.33 523.73l-0.3-0.7a564 564 0 0 0-6.56-14.61l-0.28-0.6q-3.12-6.63-5.86-11.92l-0.25-0.48a166 166 0 0 0-5.23-9.36 55 55 0 0 0-4.05-5.92l-0.16-0.19q-1.76-2.11-2.95-2.57l-0.1-0.03q-0.48-0.15-0.84-0.02l-0.31 0.1-1.22 0.46q0.4-0.15 0.9 0 0.06 0 0.11 0.03 1.25 0.43 3.1 2.51l0.16 0.2a53 53 0 0 1 4.24 5.84l0.21 0.33q2.4 3.76 5.25 8.95l0.26 0.47q2.86 5.25 6.11 11.83l0.3 0.6Q284.11 515.27 287.69 523.14l0.32 0.7a769 769 0 0 1 7.56 17.25A824 824 0 0 0 288.33 523.73" style="fill:none;stroke:#1d1d1b;stroke-width:2;stroke-linecap:butt;stroke-linejoin:miter;stroke-miterlimit:10;stroke-dasharray:none;stroke-opacity:1"/><path d="M281.57 527.66l-0.6-0.54q-6.64-6.05-12.74-11l-0.54-0.45a203 203 0 0 0-11.95-9 112 112 0 0 0-9.9-6.19l-0.41-0.22q-4.51-2.42-8.09-3.57l-0.32-0.1a15 15 0 0 0-6-0.8l-0.2 0.04a5.4 5.4 0 0 0-2.85 1.22l-1.27 1.12a5.6 5.6 0 0 1 3.17-1.35 16 16 0 0 1 6.43 0.8 49 49 0 0 1 8.65 3.64 112 112 0 0 1 10.58 6.36q5.49 3.68 11.66 8.5 0.28 0.2 0.55 0.42A305 305 0 0 1 281.32 527.88a409 409 0 0 1 14.26 13.22A414 414 0 0 0 281.57 527.66" style="fill:none;stroke:#1d1d1b;stroke-width:2;stroke-linecap:butt;stroke-linejoin:miter;stroke-miterlimit:10;stroke-dasharray:none;stroke-opacity:1"/><path d="M276.75 533.9l-0.8-0.28a268 268 0 0 0-17.15-5.28l-0.74-0.2a195 195 0 0 0-15.45-3.48l-0.65-0.12q-7.23-1.27-13.39-1.68l-0.54-0.03a66 66 0 0 0-11.4 0.2 29 29 0 0 0-8.46 2.16 12 12 0 0 0-5.14 4.12q-0.32 0.48-0.57 1l-0.21 0.42-0.6 1.27 0.65-1.16 0.14-0.22a12.4 12.4 0 0 1 5.35-4.12 30 30 0 0 1 8.66-2.22q4.9-0.6 11.05-0.34l0.55 0.03q6.2 0.3 13.5 1.45l0.65 0.1q7.34 1.2 15.57 3.24l0.74 0.18c5.5 1.4 11.3 3.06 17.29 5l0.8 0.27q9.2 3 18.97 6.88A332 332 0 0 0 276.75 533.9" style="fill:none;stroke:#1d1d1b;stroke-width:2;stroke-linecap:butt;stroke-linejoin:miter;stroke-miterlimit:10;stroke-dasharray:none;stroke-opacity:1"/><path d="M274.9 541.4l-0.88 0.04q-9.83 0.5-18.86 1.58l-0.8 0.1q-8.99 1.1-17 2.72l-0.71 0.14a158 158 0 0 0-14.73 3.74l-0.6 0.18a97 97 0 0 0-12.07 4.63l-0.48 0.23A50 50 0 0 0 199.44 560.4a23 23 0 0 0-5.53 6.03l-0.16 0.29a12 12 0 0 0-1.67 5.7l-0.04 1.8a12.3 12.3 0 0 1 1.84-6.21 23 23 0 0 1 5.86-6.39 51 51 0 0 1 9.48-5.77 98 98 0 0 1 12.07-4.81l0.6-0.2a160 160 0 0 1 15.46-4.12 224 224 0 0 1 17-2.98l0.8-0.11A280 280 0 0 1 274.89 541.72Q284.93 541.08 295.6 541.1 284.92 540.92 274.9 541.4" style="fill:none;stroke:#1d1d1b;stroke-width:2;stroke-linecap:butt;stroke-linejoin:miter;stroke-miterlimit:10;stroke-dasharray:none;stroke-opacity:1"/><path d="M276.2 548.69l-0.82 0.35A319 319 0 0 0 257.72 557.29l-0.75 0.39a273 273 0 0 0-16.58 9.16 209 209 0 0 0-14.35 9.4 141 141 0 0 0-11.29 8.98l-0.44 0.4a81 81 0 0 0-8.41 8.68l-0.3 0.37a38 38 0 0 0-5.32 8.46 16.5 16.5 0 0 0-1.53 7.28v0.15l0.01 0.15q0.13 1.7 0.73 3.2l0.2 0.47 0.47 1.15c-0.27-1-0.68-2.32-0.79-3.35v-0.15l-0.02-0.15a17 17 0 0 1 1.68-7.65 39 39 0 0 1 5.12-8.2l0.3-0.38a82 82 0 0 1 8.36-8.8l0.44-0.4a143 143 0 0 1 11.78-9.57 212 212 0 0 1 14.37-9.63 275 275 0 0 1 16.55-9.39Q266.36 553.46 275.5 549.35L276.32 548.97A341 341 0 0 1 295.57 541.09 339 339 0 0 0 276.2 548.69" style="fill:none;stroke:#1d1d1b;stroke-width:2;stroke-linecap:butt;stroke-linejoin:miter;stroke-miterlimit:10;stroke-dasharray:none;stroke-opacity:1"/><path d="M280.35 554.96l-0.64 0.62A405 405 0 0 0 265.25 570.2q-6.61 7.04-12.47 13.96l-0.52 0.63a300 300 0 0 0-10.8 13.53l-0.43 0.59a214 214 0 0 0-9.16 13.27 130 130 0 0 0-6.79 11.98 64 64 0 0 0-3.97 9.9l-0.12 0.4a25 25 0 0 0-1.12 7.9v0.15l0.02 0.15q0.25 3.35 1.91 5.28l0.33 0.34 1.22 1.22-0.4-0.42q-1.64-1.91-1.88-5.25l-0.01-0.15-0.01-0.15a26 26 0 0 1 1.2-8.33 66 66 0 0 1 3.92-9.96l0.23-0.48a133 133 0 0 1 6.78-12.16q3.84-6.18 8.68-12.86l0.43-0.6q4.88-6.7 10.63-13.7l0.51-0.63q5.79-7 12.28-14.15l0.58-0.63A412 412 0 0 1 279.95 555.82L280.58 555.19q7.27-7.18 15-14.1A407 407 0 0 0 280.35 554.96" style="fill:none;stroke:#1d1d1b;stroke-width:2;stroke-linecap:butt;stroke-linejoin:miter;stroke-miterlimit:10;stroke-dasharray:none;stroke-opacity:1"/><path d="M287 559.4l-0.36 0.8a672 672 0 0 0-15.07 36.52l-0.3 0.77a540 540 0 0 0-5.98 16.75l-0.24 0.72a402 402 0 0 0-4.85 15.37l-0.19 0.65a247 247 0 0 0-3.54 13.51l-0.13 0.55q-1.41 6.2-2.08 11.17l-0.06 0.44a47 47 0 0 0-0.44 8.64q0.22 3.32 1.25 4.83l0.1 0.13q0.5 0.69 1.17 0.96l0.57 0.24 1.08 0.43a2.7 2.7 0 0 1-1.26-1.09q-1-1.49-1.23-4.81v-0.15l-0.02-0.16a49 49 0 0 1 0.43-8.35l0.06-0.44q0.64-4.97 1.99-11.2l0.12-0.56A263 263 0 0 1 261.6 630.9a418 418 0 0 1 4.65-15.45l0.23-0.73a556 556 0 0 1 5.75-16.84l0.28-0.78q3.14-8.71 6.68-17.76l0.32-0.8Q283.08 569.49 286.98 560.34l0.35-0.8a660 660 0 0 1 8.25-18.45A641 641 0 0 0 287 559.4" style="fill:none;stroke:#1d1d1b;stroke-width:2;stroke-linecap:butt;stroke-linejoin:miter;stroke-miterlimit:10;stroke-dasharray:none;stroke-opacity:1"/><path d="M295.01 561.08l-0.02 0.88q-0.25 9.88-0.44 19.6l-0.01 0.87A3483 3483 0 0 0 294.01 620.26v0.77q-0.07 8.63-0.07 16.37v0.7A1493 1493 0 0 0 294.01 652.93a767 767 0 0 0 0.21 12.1 272 272 0 0 0 0.36 8.8 44 44 0 0 0 0.48 4.78c0.08 0.26 0.14 0.66 0.35 0.84l1.63 0.02q-0.15 0-0.3-0.84l-0.01-0.11q-0.22-1.34-0.43-4.67v-0.15l-0.02-0.15a337 337 0 0 1-0.38-8.96c-0.11-3.4-0.21-7.31-0.3-11.64v-0.58Q295.44 645.81 295.37 638.11l-0.01-0.69-0.13-16.38v-0.77Q295.18 611.61 295.18 602.31v-0.84q0-9.32 0.03-19.03v-0.87C295.25 575.1 295.29 568.53 295.35 561.97V561.08C295.41 554.4 295.49 547.71 295.58 541.09Q295.26 551.03 295.01 561.08" style="fill:none;stroke:#1d1d1b;stroke-width:2;stroke-linecap:butt;stroke-linejoin:miter;stroke-miterlimit:10;stroke-dasharray:none;stroke-opacity:1"/><path d="M302.84 559.8l0.31 0.83q3.48 9.26 6.74 18.43l0.29 0.82q3.24 9.15 6.17 17.97l0.26 0.8a870 870 0 0 1 5.47 17.03l0.22 0.73a651 651 0 0 1 4.61 15.62l0.18 0.65a419 419 0 0 1 3.73 14.26q1.5 6.27 2.43 11.28l0.08 0.44q0.9 4.94 1.12 8.38v0.15l0.02 0.15q0.17 3.33-0.32 4.8l-0.05 0.12q-0.31 0.83-0.86 1.02l0.6-0.22 0.93-0.34q0.56-0.2 0.89-1.03l0.04-0.13q0.54-1.46 0.36-4.8l-0.01-0.15-0.01-0.15c-0.15-2.28-0.54-5.1-1.15-8.37l-0.08-0.44a202 202 0 0 0-2.66-11.8 393 393 0 0 0-3.74-13.64l-0.19-0.66A622 622 0 0 0 323.44 616l-0.23-0.72a818 818 0 0 0-5.7-16.96l-0.27-0.79a958 958 0 0 0-6.43-17.88l-0.3-0.81Q307.11 569.72 303.48 560.5L303.14 559.69q-3.7-9.37-7.58-18.6Q299.28 550.38 302.84 559.8" style="fill:none;stroke:#1d1d1b;stroke-width:2;stroke-linecap:butt;stroke-linejoin:miter;stroke-miterlimit:10;stroke-dasharray:none;stroke-opacity:1"/><path d="M309.62 555.9l0.6 0.66a495 495 0 0 1 12.93 14.85l0.56 0.66a461 461 0 0 1 12.29 15.4 385 385 0 0 1 10.78 14.82q4.77 6.92 8.65 13.28l0.34 0.56q3.84 6.35 6.65 11.93l0.24 0.5q2.77 5.55 4.36 10.16l0.14 0.4a33 33 0 0 1 1.79 8l0.01 0.15v0.15q0.17 3.35-0.99 5.18l-0.1 0.16q-0.35 0.53-0.8 0.9l1.29-1.12a5 5 0 0 0 0.86-1.03q1.2-1.86 1.02-5.2v-0.15l-0.01-0.16a32 32 0 0 0-1.96-8.37 85 85 0 0 0-4.68-10.6q-2.86-5.55-6.76-11.82l-0.35-0.57A275 275 0 0 0 347.25 600.9a376 376 0 0 0-11.05-14.7q-5.69-7.22-12-14.55l-0.55-0.66A485 485 0 0 0 295.58 541.1 488 488 0 0 1 309.62 555.9" style="fill:none;stroke:#1d1d1b;stroke-width:2;stroke-linecap:butt;stroke-linejoin:miter;stroke-miterlimit:10;stroke-dasharray:none;stroke-opacity:1"/><path d="M393.9 614.84a10 10 0 0 1-0.89 4.93l0.75-1.59C394.16 616.82 394.52 614.94 394.6 613.54l-0.01-0.15-0.01-0.16A19 19 0 0 0 392.1 605.54a47 47 0 0 0-6.13-8.65 97 97 0 0 0-8.91-8.93l-0.46-0.4a166 166 0 0 0-11.65-9.32l-0.58-0.42c-4.3-3.13-9-6.28-14-9.4l-0.67-0.42a305 305 0 0 0-15.96-9.22l-0.75-0.4a346 346 0 0 0-18.36-9.14 358 358 0 0 0-19.07-8.14C348.65 562.92 392.77 596 393.9 614.84" style="fill:none;stroke:#1d1d1b;stroke-width:2;stroke-linecap:butt;stroke-linejoin:miter;stroke-miterlimit:10;stroke-dasharray:none;stroke-opacity:1"/></g><g transform="matrix(1.33 0 0 -1.33 0 1122.52)" mask="url(#mask_b)"><path d="M327.4 460.05c1.12 1.15 2.57 2.73 3.75 3.82 5.36 4.95 5.36 4.95 7.8 6.84a97 97 0 0 0 7.5 5.41 103 103 0 0 0 15.06 8.18c3.1 1.36 3.75 1.6 8.06 3.16 2.4 0.88 3 1.04 8.78 2.63 1.38 0.37 3.26 0.75 4.66 1.06 3.23 0.7 5.96 1.04 10.48 1.6 1.86 0.22 4.37 0.33 6.25 0.44a107 107 0 0 0 30.13-3.03 134 134 0 0 0 13.98-4.46c4.37-1.62 9.92-4.49 14-6.76a96 96 0 0 0 10.77-7.13c2.83-2.2 6.62-5.15 9.13-7.7 1.72-1.77 4.12-4.03 5.73-5.88 2.31-2.64 5.34-6.23 7.35-9.1 2.57-3.66 5.8-8.7 7.83-12.68a133 133 0 0 0 6.58-15.43 96 96 0 0 0 3.37-12.7c0.87-4.72 1.7-11.1 1.9-15.9 0.12-3.16 0.15-7.4-0.12-10.55-0.38-4.54-0.96-10.62-2.05-15.04-1.02-4.18-2.4-9.77-3.94-13.78-0.75-1.97-1.73-4.6-2.62-6.51a117 117 0 0 0-4.89-9.65c-0.99-1.66-2.3-3.87-3.37-5.47a132 132 0 0 0-4.8-6.67 110 110 0 0 0-9.58-10.66c-1.23-1.14-2.83-2.7-4.12-3.77a102 102 0 0 0-14.9-10.79 104 104 0 0 0-15.3-7.5 144 144 0 0 0-8.34-2.9 106 106 0 0 0-20.2-3.96c-1.71-0.16-4.02-0.28-5.74-0.4-1.79-0.12-4.18-0.08-5.97-0.08a105 105 0 0 0-14.43 1.19 83 83 0 0 0-9.7 1.92c-2.66 0.74-6.22 1.7-8.84 2.57a78 78 0 0 0-7.14 2.7c-3.57 1.63-8.4 3.74-11.74 5.8-2.03 1.25-4.8 2.83-6.74 4.2-2.96 2.1-6.88 4.95-9.6 7.33a107 107 0 0 0-6 5.55c-2.43 2.54-5.6 6-7.8 8.75a99 99 0 0 0-4.94 6.73 122 122 0 0 0-6.02 10.09 104 104 0 0 0-8.88 23.33c-1 3.76-1.78 8.9-2.33 12.75a88 88 0 0 0-0.63 7.94 103 103 0 0 0 8.72 45.9c1.37 2.94 3.2 6.87 4.9 9.64 1 1.65 2.29 3.87 3.36 5.47 1.38 2.04 3.34 4.68 4.8 6.67C323.17 455.38 325.6 458.05 327.4 460.05c7.23 7.76 19.59 10.95 36.31 8.01C347 471 334.63 467.81 327.4 460.05Z" style="fill:none;stroke:#1d1d1b;stroke-width:2;stroke-linecap:butt;stroke-linejoin:miter;stroke-miterlimit:10;stroke-dasharray:none;stroke-opacity:1"/><path d="M344.3 468.8l-0.65-0.12C340.18 464.9 338.15 461.16 337.5 457.83l0.87 0.5C339 461.55 340.95 465.15 344.3 468.8m-5.98-10.76l-0.87-0.51c-0.56-3.32 0.27-6.22 2.43-8.37l0.78 0.82c-2.08 2.06-2.88 4.86-2.34 8.06m2.53-8.25l-0.77-0.82c1.68-1.58 4.12-2.72 7.3-3.28q1.56-0.28 3.25-0.34l0.4 0.95q-1.62 0.07-3.14 0.33c-3.06 0.54-5.41 1.64-7.04 3.16m10.58-3.5l-0.39-0.95c4.58-0.13 9.7 0.8 14.8 2.58l-0.14 0.86c-4.91-1.71-9.86-2.62-14.27-2.5m14.72 2.65l0.15-0.85a57 57 0 0 1 14.5 7.7q-0.33 0.3-0.67 0.58a55 55 0 0 0-13.98-7.43m14.36 7.72l0.69-0.57a45 45 0 0 1 5.84 5.23A31 31 0 0 1 391.3 466.99l-1.05 0.18a30 30 0 0 0-4.1-5.48 44 44 0 0 0-5.64-5.04m9.92 10.84l1.06-0.17c1.99 3.64 2.56 7.05 1.78 9.88l-1.12-0.19c0.75-2.73 0.2-6.01-1.72-9.52m1.64 9.77l1.12 0.2c-0.86 2.79-3.1 4.99-6.62 6.25l-0.88-0.42c3.4-1.22 5.55-3.34 6.38-6.03m-6.7 6.14l0.87 0.42q-1.26 0.42-2.73 0.68c-3.23 0.57-6.9 0.47-10.71-0.2l-0.4-0.43c3.7 0.63 7.22 0.73 10.34 0.18q1.42-0.24 2.63-0.65m-13.4 0.39l0.38 0.44a54 54 0 0 1-15.13-5.36q0.07-0.12 0.17-0.24a52 52 0 0 0 14.58 5.16M356.96 478.4l-0.18 0.24A50 50 0 0 1 343.84 468.9l0.64 0.1a49 49 0 0 0 12.48 9.4" style="fill:none;stroke:#1d1d1b;stroke-width:2;stroke-linecap:butt;stroke-linejoin:miter;stroke-miterlimit:10;stroke-dasharray:none;stroke-opacity:1"/><path d="M329.84 462.7l-0.43-0.34C322.88 455.24 319.06 448.2 317.85 441.93l0.61 0.67C319.66 448.78 323.41 455.7 329.84 462.7m-11.48-20.65l-0.62-0.69c-1.05-6.23 0.5-11.7 4.57-15.73l0.55 0.94c-4 3.97-5.53 9.35-4.5 15.48m4.87-15.83l-0.54-0.95C325.86 422.3 330.44 420.15 336.41 419.11q2.96-0.52 6.13-0.65l0.22 1.06q-3.13 0.13-6.03 0.63C330.86 421.19 326.34 423.3 323.23 426.23m20.29-6.73l-0.2-1.06c8.6-0.24 18.26 1.53 27.84 4.86l-0.25 0.98c-9.43-3.28-18.93-5.02-27.4-4.78m28.25 5.08l0.27-0.97A107 107 0 0 1 399.31 438.1l-0.7 0.74a106 106 0 0 0-26.85-14.26m27.57 14.8l0.72-0.73a85 85 0 0 1 11 9.83 58 58 0 0 1 8.01 10.7l-1.03 0.4a57 57 0 0 0-7.88-10.52 83 83 0 0 0-10.82-9.68m19.04 20.8l1.04-0.39c3.74 6.85 4.82 13.27 3.35 18.59l-1.1 0.08c1.46-5.23 0.4-11.54-3.29-18.28m3.16 18.75l1.08-0.08c-1.63 5.26-5.81 9.4-12.46 11.77l-0.88-0.11c6.53-2.34 10.65-6.41 12.26-11.58M408.67 490.71l0.87 0.12q-2.37 0.8-5.14 1.28c-6.08 1.07-12.97 0.88-20.15-0.36l-0.47-0.13c7.07 1.22 13.85 1.4 19.83 0.35q2.72-0.48 5.06-1.26m-25.72 0.76l0.45 0.13a90 90 0 0 1-9.23-2.22l-0.36-0.11c-1.31-0.42-3.06-0.96-4.36-1.4a92 92 0 0 0 13.5 3.6M330.19 463.08A86 86 0 0 0 344.11 475l-1.37-0.97-2.08-1.53A86 86 0 0 1 329.76 462.74l0.43 0.34" style="fill:none;stroke:#1d1d1b;stroke-width:2;stroke-linecap:butt;stroke-linejoin:miter;stroke-miterlimit:10;stroke-dasharray:none;stroke-opacity:1"/><path d="M305.58 422.92a42 42 0 0 0 2.96 9.16L307.95 430.72C306.03 425.65 305.91 425.35 305.25 422.12L305.58 422.92m-0.14-0.77l-0.34-0.81c-1.46-8.64 0.7-16.2 6.33-21.79l0.28 1C306.13 406.1 304 413.6 305.44 422.16m6.78-22.08l-0.27-1.02c4.39-4.11 10.74-7.09 19-8.54a65 65 0 0 1 8.5-0.9q0 0.56 0.02 1.1-4.36 0.19-8.41 0.9C322.87 393.04 316.58 395.99 312.22 400.07m28.31-9.39l-0.01-1.1c11.9-0.33 25.29 2.12 38.56 6.73l-0.34 1.04c-13.15-4.57-26.4-7-38.21-6.67m39.4 7.09l0.35-1.04A149 149 0 0 1 418.06 416.82l-0.7 0.85a147 147 0 0 0-37.43-19.89M418.38 418.41l0.7-0.84a118 118 0 0 1 15.23 13.62 80 80 0 0 1 11.1 14.81l-0.95 0.59a79 79 0 0 0-11-14.69A116 116 0 0 0 418.38 418.42m26.56 29.02l0.95-0.57c5.18 9.48 6.68 18.37 4.63 25.74l-1 0.34c2.04-7.3 0.55-16.1-4.58-25.5m4.4 26.15l0.99-0.33c-2.26 7.27-8.06 13-17.26 16.3l-0.83 0.17c9.11-3.25 14.86-8.93 17.1-16.14M431.4 490.02l0.83-0.18q-2.34 0.78-4.94 1.35l-1.45 0.3q2.95-0.6 5.56-1.47" style="fill:none;stroke:#1d1d1b;stroke-width:2;stroke-linecap:butt;stroke-linejoin:miter;stroke-miterlimit:10;stroke-dasharray:none;stroke-opacity:1"/><path d="M307.81 373.57c-3.43 3.9-8.6 9.81-8.05 21.62l-0.06-1.34C299.41 385.51 302.13 378.19 307.81 372.55V373.57m0.62-0.6v-1c5.28-4.94 12.91-8.51 22.83-10.25q4.91-0.86 10.2-1.08l-0.17 1.07q-5.26 0.22-10.15 1.07C321.27 364.51 313.68 368.07 308.43 372.97m34.14-11.32l0.17-1.07c14.31-0.4 30.37 2.54 46.31 8.09l-0.4 1.03c-15.87-5.52-31.85-8.44-46.08-8.05m47.5 8.56l0.42-1.03a179 179 0 0 1 45.38 24.1l-0.64 0.9A178 178 0 0 0 390.08 370.22m46.37 24.9l0.65-0.91a141 141 0 0 1 18.28 16.35 95 95 0 0 1 13.33 17.8l-0.8 0.73a96 96 0 0 0-13.27-17.7 140 140 0 0 0-18.19-16.28m32.03 35l0.8-0.73c6.23 11.39 8.03 22.06 5.57 30.91l-0.83 0.58c2.44-8.81 0.65-19.43-5.54-30.76m5.3 31.54l0.84-0.57c-1.9 6.14-5.91 11.37-11.96 15.3l-0.66 0.43-0.5 0.32c6.23-3.94 10.35-9.23 12.29-15.48" style="fill:none;stroke:#1d1d1b;stroke-width:2;stroke-linecap:butt;stroke-linejoin:miter;stroke-miterlimit:10;stroke-dasharray:none;stroke-opacity:1"/><path d="M311.75 347.32a29 29 0 0 0-7.45 12.22l0.41-1.3A29 29 0 0 1 312.06 346.37L311.75 347.32m0.68-0.65l0.3-0.95c5.75-5.38 14.07-9.27 24.87-11.17a85 85 0 0 1 11.1-1.18l-0.36 0.98q-5.75 0.24-11.09 1.17C326.46 337.42 318.16 341.3 312.43 346.67m37.3-12.37l0.38-0.98c15.59-0.43 33.08 2.77 50.45 8.81l-0.46 0.96c-17.33-6.03-34.8-9.23-50.36-8.8m51.93 9.35l0.45-0.96a195 195 0 0 1 49.44 26.26l-0.54 0.92A194 194 0 0 0 401.67 343.64m50.69 27.22l0.54-0.92c7.28 5.5 14 11.46 19.91 17.81a105 105 0 0 1 14.52 19.39l-0.6 0.85a104 104 0 0 0-14.49-19.35 153 153 0 0 0-19.88-17.78m35 38.25l0.6-0.85c6.78 12.4 8.74 24.03 6.06 33.67l-0.6 0.8c2.67-9.63 0.71-21.23-6.06-33.62m5.8 34.48l0.61-0.8q-1.5 4.89-4.63 8.98l-0.84 1.1q3.3-4.23 4.86-9.28" style="fill:none;stroke:#1d1d1b;stroke-width:2;stroke-linecap:butt;stroke-linejoin:miter;stroke-miterlimit:10;stroke-dasharray:none;stroke-opacity:1"/><path d="M323.86 323.84a31 31 0 0 0-2.83 3.23L321.86 325.98A31 31 0 0 1 324.46 323.07L323.86 323.84m0.68-0.65l0.6-0.77C330.86 317.04 339.16 313.16 349.96 311.27a85 85 0 0 1 11.09-1.18l-0.54 0.75q-5.76 0.25-11.1 1.18C338.59 313.92 330.27 317.81 324.53 323.19m37.37-12.4l0.53-0.75c15.57-0.43 33.04 2.77 50.37 8.8l-0.45 0.76c-17.36-6.04-34.86-9.24-50.45-8.8m52.02 9.36l0.44-0.77a194 194 0 0 1 49.36 26.21l-0.37 0.81A195 195 0 0 0 413.93 320.16m50.77 27.26l0.37-0.82a153 153 0 0 1 19.88 17.79 104 104 0 0 1 14.5 19.35l-0.31 0.87a105 105 0 0 0-14.52-19.38 154 154 0 0 0-19.92-17.82M499.76 385.74l0.31-0.87c6.77 12.38 8.73 23.99 6.06 33.61l-0.3 0.93c2.68-9.64 0.72-21.26-6.07-33.67m5.81 34.54l0.27-0.83-0.37 1.16 0.1-0.33" style="fill:none;stroke:#1d1d1b;stroke-width:2;stroke-linecap:butt;stroke-linejoin:miter;stroke-miterlimit:10;stroke-dasharray:none;stroke-opacity:1"/><path d="M376.03 294.63q-5.29 0.22-10.2 1.08c-7.35 1.29-13.45 3.59-18.26 6.7l1.16-0.74C353.45 298.7 359.39 296.5 366.52 295.25Q371.4 294.4 376.66 294.17L376.03 294.63m1.29-0.04L377.93 294.13C392.18 293.73 408.16 296.66 424.03 302.17l-0.39 0.5C407.69 297.13 391.63 294.18 377.32 294.59m47.75 8.59l0.39-0.5a178 178 0 0 1 45.15 23.98l-0.16 0.62a179 179 0 0 0-45.38-24.1m46.6 25.02l0.16-0.62A140 140 0 0 1 490.03 343.85a95 95 0 0 1 13.26 17.7v0.8a96 96 0 0 0-13.33-17.8 141 141 0 0 0-18.28-16.35m32.19 35.18v-0.8c4.05 7.43 6.22 14.55 6.54 21.06l0.06 1.34c-0.25-6.66-2.43-13.97-6.6-21.6" style="fill:none;stroke:#1d1d1b;stroke-width:2;stroke-linecap:butt;stroke-linejoin:miter;stroke-miterlimit:10;stroke-dasharray:none;stroke-opacity:1"/><path d="M393.55 286.32a65 65 0 0 0-10.76 1.35l1.48-0.32 1.55-0.3Q389.88 286.35 394.23 286.16L393.55 286.32m1.07-0.04l0.68-0.15c11.8-0.33 25.06 2.1 38.2 6.67l-0.31 0.22C419.91 288.4 406.54 285.95 394.62 286.28m39.77 7.16l0.3-0.22A147 147 0 0 1 472.15 313.11l0.03 0.4A149 149 0 0 0 434.39 293.44m38.81 20.84l-0.05-0.42c5.52 4.16 10.6 8.68 15.09 13.5a79 79 0 0 1 11 14.68l0.29 0.67a80 80 0 0 0-11.1-14.82 118 118 0 0 0-15.23-13.61m26.8 29.29l-0.29-0.68q1.07 1.96 1.93 3.87l0.59 1.36a54 54 0 0 0-2.23-4.55" style="fill:none;stroke:#1d1d1b;stroke-width:2;stroke-linecap:butt;stroke-linejoin:miter;stroke-miterlimit:10;stroke-dasharray:none;stroke-opacity:1"/><path d="M440.53 290.9q-2.26-0.78-4.53-1.46l0.38 0.11C437.67 289.98 439.43 290.51 440.73 290.96l0.03 0.01L440.53 290.9m0.87 0.3l0.2 0.07a106 106 0 0 1 24.49 12.57l1.35 0.95 1.17 0.85 0.07 0.06A107 107 0 0 0 441.4 291.2m28.02 15.05l0.11 0.09-0.1-0.09" style="fill:none;stroke:#1d1d1b;stroke-width:2;stroke-linecap:butt;stroke-linejoin:miter;stroke-miterlimit:10;stroke-dasharray:none;stroke-opacity:1"/><path d="M305.24 422.11l0.34 0.8a70 70 0 0 0 12.88 19.7 83 83 0 0 0 19.91 15.7c8.51 4.44 12.79 6.66 25.29 10.17A104 104 0 0 1 337.44 457.51a84 84 0 0 1-19.7-16.14A71 71 0 0 1 305.1 421.33c-2.67-7.48-3.01-8.44-4.09-14.4l0.42 2.34Q302.66 415.89 305.24 422.11" style="fill:none;stroke:#1d1d1b;stroke-width:2;stroke-linecap:butt;stroke-linejoin:miter;stroke-miterlimit:10;stroke-dasharray:none;stroke-opacity:1"/><path d="M324.45 323.06l-0.6 0.77a76 76 0 0 0-6.78 10.71 79 79 0 0 0-5.33 12.78 86 86 0 0 0-3.93 26.25 100 100 0 0 0 3.9 26.98A113 113 0 0 0 322.85 426.58a121 121 0 0 0 17.8 23.39c7.71 7.39 11.58 11.1 23 18.52-8.86-6.08-13.3-9.13-22.8-18.71l-0.78-0.82a122 122 0 0 1-17.39-23.69A114 114 0 0 1 311.95 399.04 101 101 0 0 1 308.45 371.96a86 86 0 0 1 4.29-26.24q2-6.1 5.02-11.84A76 76 0 0 1 325.13 322.41 74 74 0 0 1 332.85 313.94L330.63 316.08A74 74 0 0 0 324.45 323.06" style="fill:none;stroke:#1d1d1b;stroke-width:2;stroke-linecap:butt;stroke-linejoin:miter;stroke-miterlimit:10;stroke-dasharray:none;stroke-opacity:1"/><path d="M394.24 286.16l-0.68 0.16a48 48 0 0 0-17.52 8.3 69 69 0 0 0-15.53 16.22 95 95 0 0 0-6.41 10.58 113 113 0 0 0-5.76 12.93 138 138 0 0 0-7.05 27.35 162 162 0 0 0-1.82 29c0.24 9.38 1.28 18.72 3.08 27.76l0.21 1.06a142 142 0 0 0 8.28 26.77c3.45 8.1 7.67 15.6 12.62 22.2-4.95-7.37-7.44-11.08-12.23-22.21l-0.38-0.95a143 143 0 0 1-7.73-26.9 167 167 0 0 1-2.8-28.86 166 166 0 0 1 2.23-28.98 141 141 0 0 1 7.36-27.26q2.4-6.22 5.4-11.96a97 97 0 0 1 6.94-11.33A69 69 0 0 1 377.94 294.12a48 48 0 0 1 17.35-8A41 41 0 0 1 403.05 285.16l-1.63 0.06Q397.82 285.37 394.24 286.16" style="fill:none;stroke:#1d1d1b;stroke-width:2;stroke-linecap:butt;stroke-linejoin:miter;stroke-miterlimit:10;stroke-dasharray:none;stroke-opacity:1"/><path d="M440.75 290.97l-0.23-0.07c-1.94-0.56-4.3 0.1-7.01 1.9l-0.32 0.22q-4.13 2.87-9.16 9.15l-0.4 0.5q-5.07 6.43-10.82 16.17l-0.45 0.77a266 266 0 0 0-5.89 10.66q-3 5.75-5.92 11.87l-0.45 0.96A436 436 0 0 0 388.65 369.71a490 490 0 0 0-9.57 26.6l-0.34 1.04a435 435 0 0 0-7.58 25.95l-0.25 0.98a296 296 0 0 0-5.07 23.64l-0.14 0.86a146 146 0 0 0-2.04 19.72c0.29-5.7 1.14-12.3 2.48-19.57l0.16-0.85c1.37-7.28 3.22-15.2 5.46-23.5l0.27-0.97a463 463 0 0 1 7.9-25.84l0.34-1.04c3-8.82 6.3-17.74 9.8-26.51l0.42-1.03a466 466 0 0 1 11.63-26.5q2.93-6.11 5.93-11.86 3.01-5.73 5.87-10.67l0.45-0.77a157 157 0 0 1 11.09-16.71q4.94-6.32 8.93-9.24l0.3-0.22Q438.64 290.45 441.4 291.2l0.2 0.07 0.05 0.01L440.75 290.97" style="fill:none;stroke:#1d1d1b;stroke-width:2;stroke-linecap:butt;stroke-linejoin:miter;stroke-miterlimit:10;stroke-dasharray:none;stroke-opacity:1"/><path d="M468.68 305.7c1.94 1.49 3.1 3.99 3.46 7.4l0.04 0.41q0.44 5.27-1.57 13.16l-0.16 0.61a122 122 0 0 1-7.1 19.14 218 218 0 0 1-5.36 10.94 282 282 0 0 1-6.97 12.5c-4.6 7.8-9.71 15.68-15.15 23.43l-0.64 0.9a407 407 0 0 1-17.17 22.62l-0.7 0.85a366 366 0 0 1-18.05 20.44l-0.7 0.74a255 255 0 0 1-18.48 17.52 131 131 0 0 1-16.47 12.14 127 127 0 0 0 17.54-12.42 244 244 0 0 0 18.13-16.7l0.72-0.73a349 349 0 0 0 18.33-20.24l0.7-0.84A387 387 0 0 0 437.11 394.2a340 340 0 0 0 15.25-23.34l0.54-0.92q3.45-5.84 6.46-11.58a207 207 0 0 0 5.7-11.76 117 117 0 0 0 6.78-19.03c1.29-5.28 1.73-9.75 1.36-13.3l-0.04-0.41Q472.48 308.62 469.41 306.25l-0.8-0.6L468.68 305.7" style="fill:none;stroke:#1d1d1b;stroke-width:2;stroke-linecap:butt;stroke-linejoin:miter;stroke-miterlimit:10;stroke-dasharray:none;stroke-opacity:1"/><path d="M499.24 342.04l0.29 0.67a50 50 0 0 1 3.77 19.64A67 67 0 0 1 499.14 384.61q-2 5.59-5 11.33a106 106 0 0 1-7.4 12.06 130 130 0 0 1-18.83 21.09 155 155 0 0 1-23.45 17.5 161 161 0 0 1-26.43 13 144 144 0 0 1-27.78 7.58 114 114 0 0 1-26.59 1.33c9.46 0.46 14.2 0.69 26.77-1.02l1.06-0.16a143 143 0 0 0 27.92-7.52 159 159 0 0 0 26.48-12.94 153 153 0 0 0 23.4-17.48 128 128 0 0 0 18.67-21.11q3.79-5.45 6.81-11.2a89 89 0 0 0 5.3-12.21 66 66 0 0 0 3.8-22.28A50.5 50.5 0 0 0 499.71 342.89l-1.69-3.46L497.24 338Q498.33 339.97 499.24 342.04" style="fill:none;stroke:#1d1d1b;stroke-width:2;stroke-linecap:butt;stroke-linejoin:miter;stroke-miterlimit:10;stroke-dasharray:none;stroke-opacity:1"/><path d="M506.12 418.47l-0.3 0.93a76 76 0 0 1-4.93 11.68 78 78 0 0 1-7.48 11.65 85 85 0 0 1-19.4 18.13 99 99 0 0 1-24.48 12.07A114 114 0 0 1 421.66 478.47a122 122 0 0 1-29.52-1.46 124 124 0 0 1-28.48-8.52 124 124 0 0 0 29.53 8.96 121 121 0 0 0 29.42 1.41 112 112 0 0 0 27.72-5.6A98 98 0 0 0 474.62 461.07a84 84 0 0 0 19.14-18.28 78 78 0 0 0 6.88-10.84A76 76 0 0 0 505.84 419.43L506.72 416.41 506.12 418.47" style="fill:none;stroke:#1d1d1b;stroke-width:2;stroke-linecap:butt;stroke-linejoin:miter;stroke-miterlimit:10;stroke-dasharray:none;stroke-opacity:1"/><path d="M433.07 489.55l-0.83 0.18a67 67 0 0 1-22.98 0.79 78 78 0 0 1-23.58-7.23 98 98 0 0 1-22.02-14.8A96 96 0 0 0 386.24 483.83a77 77 0 0 0 23.3 7.02A65 65 0 0 0 432.22 489.85a62 62 0 0 0 6.28-1.77l2.05-0.71A63 63 0 0 1 433.07 489.55" style="fill:none;stroke:#1d1d1b;stroke-width:2;stroke-linecap:butt;stroke-linejoin:miter;stroke-miterlimit:10;stroke-dasharray:none;stroke-opacity:1"/><path d="M384.25 491.76l-0.46-0.13C379.85 490.45 376.14 488.01 372.8 484.31l-0.39-0.45c-3.33-3.82-6.28-8.94-8.75-15.36 2.32 6.4 5.13 11.49 8.32 15.29l0.37 0.43c3.2 3.69 6.78 6.1 10.6 7.26a23 23 0 0 0 2.12 0.5l1.12 0.2Q385.21 492.04 384.25 491.76" style="fill:none;stroke:#1d1d1b;stroke-width:2;stroke-linecap:butt;stroke-linejoin:miter;stroke-miterlimit:10;stroke-dasharray:none;stroke-opacity:1"/><path d="M357.22 478.87l0.17-0.25q2.15-3.23 6.27-10.13-4.34 6.8-6.7 9.9l-0.18 0.25Q354.62 481.45 354.18 481.17l0.8 0.43Q355.26 481.77 357.22 478.87" style="fill:none;stroke:#1d1d1b;stroke-width:2;stroke-linecap:butt;stroke-linejoin:miter;stroke-miterlimit:10;stroke-dasharray:none;stroke-opacity:1"/><path d="M363.66 468.5c-7.3 1.2-13.77 1.26-19.36 0.3l-0.65-0.11c-5.5-1.04-10.12-3.07-13.81-5.97l-0.43-0.35a26 26 0 0 1-2.6-2.47l0.54 0.59C334.58 468.25 346.94 471.44 363.66 468.5" style="fill:none;stroke:#1d1d1b;stroke-width:2;stroke-linecap:butt;stroke-linejoin:miter;stroke-miterlimit:10;stroke-dasharray:none;stroke-opacity:1"/></g><g transform="matrix(1.33 0 0 -1.33 0 1122.52)" mask="url(#mask_c)"><path d="M205.93 286.82a127 127 0 0 0-9.94-0.92c-2-0.13-4.68-0.11-6.69-0.1-1.67 0-8.54 0.24-14 1.14-1.6 0.26-3.75 0.57-5.33 0.93-6.83 1.54-7.1 1.6-10.06 2.54a98 98 0 0 0-8.81 3.12 104 104 0 0 0-15.45 7.74 97 97 0 0 0-7.2 4.8c-2.07 1.45-2.46 1.77-7.15 5.7A104 104 0 0 0 110.44 322.72c-1.3 1.45-2.87 3.53-4.07 5.07a102 102 0 0 0-4.3 6.14c-1 1.55-2.25 3.7-3.2 5.3a109 109 0 0 0-4.35 8.62c-0.86 1.85-1.83 4.38-2.57 6.28a93 93 0 0 0-3.71 12.28 103 103 0 0 0-2.44 31.62 103 103 0 0 0 21.58 55.45 104.6 104.6 0 0 0 37.12 29.96 107 107 0 0 0 19.42 7.14c3.65 0.92 8.59 1.89 12.3 2.45 2.97 0.45 6.95 0.86 9.95 0.93 7.04 0.15 8.12 0.18 14.2-0.28a108 108 0 0 0 21.88-4.24c1.38-0.44 3.24-1 4.6-1.51 2.5-0.95 5.83-2.29 8.3-3.35a63 63 0 0 0 3.9-1.86c1.13-0.6 2.66-1.38 3.78-2s2.58-1.5 3.68-2.14c0.03-0.02 3.28-1.94 7.2-4.8 4.89-3.55 7.56-6.02 10.66-8.88 1.2-1.1 2.7-2.67 3.82-3.85 1.09-1.14 2.96-2.44 3.52-3.91-6.44 7.54-18.03 10.91-34.17 8.66 16.14 2.25 27.73-1.12 34.17-8.66a105 105 0 0 0 11.57-16.5c1.39-2.56 3.14-6 4.36-8.64a106 106 0 0 0 4.76-12.82c1.14-3.82 2.32-9.02 2.95-12.95a84 84 0 0 0 1.04-8.91c0.2-4.65 0.5-10.88-0.03-15.5-0.54-4.63-1.31-10.83-2.4-15.37a135 135 0 0 0-4.96-15.55c-1.8-4.68-5.05-10.56-7.56-14.9-1.72-2.98-4.46-6.67-6.5-9.43a96 96 0 0 0-7.63-8.79c-2.5-2.56-6-5.83-8.8-8.07-3.76-3.02-9.1-6.7-13.22-9.22-3.2-1.96-7.7-4.2-11.15-5.7a120 120 0 0 0-13.64-4.9A131 131 0 0 0 205.93 286.82Z" style="fill:none;stroke:#1d1d1b;stroke-width:2;stroke-linecap:butt;stroke-linejoin:miter;stroke-miterlimit:10;stroke-dasharray:none;stroke-opacity:1"/><path d="M123.45 309.94l-1.96 1.66L123.32 310.04 123.45 309.94m0.77-0.62l-0.18 0.14a109 109 0 0 1 26.7-15.78l-0.17 0.06-1.33 0.56C140.39 298.29 133.82 301.83 124.51 309.08l-0.3 0.24m27.25-15.94l0.12-0.05 1.91-0.74-2.03 0.79" style="fill:none;stroke:#1d1d1b;stroke-width:2;stroke-linecap:butt;stroke-linejoin:miter;stroke-miterlimit:10;stroke-dasharray:none;stroke-opacity:1"/><path d="M91.94 354.18l-0.53 1.47a57 57 0 0 1 3.06-7l0.24-0.67A57 57 0 0 0 91.94 354.18m3.23-7.09L94.94 347.76a86 86 0 0 1 10.51-15.1c4.53-5.3 9.7-10.3 15.32-14.93v-0.4a122 122 0 0 0-15.18 14.79A85 85 0 0 0 95.17 347.09m26.59-30.57l0.01 0.39C132.94 307.88 145.77 300.37 158.74 295.05l-0.35-0.19a149 149 0 0 0-36.63 21.66M159.54 294.39l0.36 0.18c12.98-5.18 26.05-8.16 37.7-8.23l-0.71-0.1c-11.54 0.06-24.5 3.01-37.35 8.15m38.4-8.15l0.71 0.1a61 61 0 0 1 8.25 0.63l-0.97-0.14-0.55-0.08q-3.6-0.48-7.44-0.51" style="fill:none;stroke:#1d1d1b;stroke-width:2;stroke-linecap:butt;stroke-linejoin:miter;stroke-miterlimit:10;stroke-dasharray:none;stroke-opacity:1"/><path d="M85.5 391.47l0.03 1.37c0.2-5.85 0.45-12.49 6.57-24.64l-0.06-0.78C87.6 376.06 85.43 384.22 85.5 391.47m7.1-25.12l0.06 0.78A103 103 0 0 1 105.29 348.97a148 148 0 0 1 18.4-17.92l-0.22-0.6a147 147 0 0 0-18.3 17.83A103 103 0 0 0 92.6 366.35M124.67 329.47l0.21 0.6a181 181 0 0 1 44.4-26.26l-0.44-0.46A180 180 0 0 0 124.67 329.47m45.57-26.69l0.45 0.46c15.58-6.23 31.28-9.8 45.27-9.88l-0.67-0.42c-13.92 0.09-29.54 3.64-45.05 9.84m46.31-9.83l0.68 0.4q4.85 0.06 9.37 0.68c6.43 0.9 11.89 2.65 16.36 5.12l-1.24-0.67c-4.36-2.34-9.65-4-15.84-4.86q-4.5-0.63-9.33-0.67" style="fill:none;stroke:#1d1d1b;stroke-width:2;stroke-linecap:butt;stroke-linejoin:miter;stroke-miterlimit:10;stroke-dasharray:none;stroke-opacity:1"/><path d="M92.3 426.76l0.5 1.27a30 30 0 0 1-0.86-2.5l-0.35-0.9Q91.9 425.71 92.3 426.76m-0.96-3l0.36 0.9c-2.58-9.78-0.62-21.76 6.07-34.71l-0.37-0.85C90.73 402.04 88.77 414 91.34 423.76m6.68-35.83l0.37 0.84a112 112 0 0 1 13.75-19.76 161 161 0 0 1 20.04-19.53l-0.42-0.78a161 161 0 0 0-20 19.5A112 112 0 0 0 98.01 387.93m35.04-40.3l0.43 0.78a197 197 0 0 1 48.36-28.6l-0.5-0.72a197 197 0 0 0-48.29 28.55m49.82-29.17l0.5 0.73c16.98-6.8 34.08-10.68 49.32-10.77l-0.59-0.72c-15.2 0.1-32.28 3.98-49.23 10.76m50.61-10.75l0.59 0.7q5.28 0.06 10.21 0.74c10.83 1.51 19.13 5.25 24.83 10.66l-0.65-0.73c-5.69-5.4-13.98-9.13-24.78-10.64q-4.93-0.69-10.2-0.73m35.64 12.01l0.64 0.73q0.66 0.67 1.26 1.36l-0.9-1.03-1-1.06" style="fill:none;stroke:#1d1d1b;stroke-width:2;stroke-linecap:butt;stroke-linejoin:miter;stroke-miterlimit:10;stroke-dasharray:none;stroke-opacity:1"/><path d="M111.12 458.02l0.9 1.02A29 29 0 0 1 105.82 447.92l-0.65-0.76A29 29 0 0 0 111.12 458.02m-6.2-11.74l0.67 0.75C103.02 437.26 104.97 425.31 111.64 412.37l-0.65-0.8C104.31 424.52 102.35 436.49 104.92 446.26M111.62 410.4q0.3 0.4 0.64 0.81c3.43-6.4 8-13.02 13.74-19.73a161 161 0 0 1 20-19.5l-0.6-0.87A161 161 0 0 0 125.38 390.62 112 112 0 0 0 111.62 410.39m35.1-40.36l0.59 0.88a197 197 0 0 1 48.28-28.55l-0.5-0.93a197 197 0 0 0-48.37 28.6m49.9-29.22l0.5 0.93c16.95-6.78 34.03-10.67 49.24-10.76l-0.43-0.94c-15.23 0.1-32.34 3.98-49.32 10.77m50.7-10.77l0.43 0.95q5.26 0.04 10.2 0.73c10.8 1.5 19.09 5.24 24.78 10.64l-0.37-0.92c-5.7-5.42-14-9.15-24.82-10.67q-4.94-0.68-10.22-0.73m35.7 12.04l0.36 0.92a29 29 0 0 1 6.5 10.09l-0.5-1.27a29 29 0 0 0-6.36-9.74" style="fill:none;stroke:#1d1d1b;stroke-width:2;stroke-linecap:butt;stroke-linejoin:miter;stroke-miterlimit:10;stroke-dasharray:none;stroke-opacity:1"/><path d="M139.22 480.7l1.2 0.65c-7.24-3.87-11.95-9.6-14.02-16.63l-0.87-0.52C127.58 471.13 132.17 476.8 139.22 480.7m-13.91-17.3l0.87 0.52c-2.35-8.94-0.56-19.88 5.55-31.71l-0.85-0.68c-6.14 11.89-7.94 22.88-5.57 31.86m6.14-32.94l0.84 0.69A103 103 0 0 1 144.86 413.08a147 147 0 0 1 18.3-17.83l-0.7-0.87A148 148 0 0 0 144.09 412.3 103 103 0 0 0 131.45 430.45M163.67 393.4l0.68 0.87a180 180 0 0 1 44.18-26.12l-0.46-1a181 181 0 0 0-44.4 26.25m45.8-26.82l0.46 1c15.5-6.2 31.13-9.75 45.05-9.84l-0.23-1.05c-13.99 0.08-29.69 3.65-45.27 9.89m46.54-9.89l0.22 1.06q4.82 0.04 9.33 0.67c9.89 1.38 17.47 4.79 22.67 9.73l-0.06-1c-5.23-4.97-12.85-8.4-22.79-9.79a73 73 0 0 0-9.37-0.67m32.76 11.05l0.06 1c5.1 5.16 7.74 11.87 7.82 19.63l-0.03-1.37c-0.18-7.6-2.82-14.18-7.85-19.26" style="fill:none;stroke:#1d1d1b;stroke-width:2;stroke-linecap:butt;stroke-linejoin:miter;stroke-miterlimit:10;stroke-dasharray:none;stroke-opacity:1"/><path d="M176.23 493.04l0.53 0.07Q176.61 493.11 176.48 493.07 172.51 492.51 169.13 491.45l-0.85-0.13Q171.48 492.34 175.22 492.89L176.23 493.04m-8.77-1.98l0.86 0.13c-8.87-3.02-14.46-8.64-16.61-15.95l-1.02-0.27c2.18 7.37 7.81 13.04 16.77 16.09m-16.96-16.76l1.02 0.28c-1.95-7.41-0.46-16.48 4.6-26.3l-0.97-0.52c-5.12 9.9-6.61 19.06-4.65 26.54m5.12-27.44l0.97 0.54A85 85 0 0 1 167.01 432.43a122 122 0 0 1 15.18-14.8l-0.74-0.8A123 123 0 0 0 166.13 431.74a86 86 0 0 0-10.5 15.12M182.45 416.01l0.73 0.82a149 149 0 0 1 36.63-21.66l-0.39-1.02A151 151 0 0 0 182.45 416.01m38.15-22.34l0.37 1.03c12.86-5.15 25.82-8.1 37.35-8.16q0-0.55-0.03-1.1c-11.64 0.07-24.72 3.04-37.7 8.23m38.76-8.23l0.02 1.1q4 0.04 7.74 0.55c8.2 1.15 14.49 3.98 18.8 8.08l0.22-1.02c-4.35-4.14-10.7-7-18.97-8.15q-3.77-0.52-7.81-0.56m27.29 9.2l-0.23 1.02c5.42 5.47 7.48 13.07 6.03 21.89l0.29-0.81c1.46-8.9-0.62-16.57-6.1-22.1m5.96 22.9l-0.29 0.8a44 44 0 0 1-2.07 7.34l0.53-1.48q1.22-3.42 1.83-6.66" style="fill:none;stroke:#1d1d1b;stroke-width:2;stroke-linecap:butt;stroke-linejoin:miter;stroke-miterlimit:10;stroke-dasharray:none;stroke-opacity:1"/><path d="M269.56 459.43l-0.38 0.34a89 89 0 0 1-11.5 10.99l3.02-2.52A88 88 0 0 0 269.56 459.43m-40.91 27.84c1.27-0.5 2.99-1.16 4.25-1.7a91 91 0 0 1-15.28 5.02l-0.48 0.17a89 89 0 0 0 11.5-3.49m-12.32 3.67l0.49-0.17c-6.78 1.47-13.28 1.9-19.05 1.1q-2.85-0.4-5.26-1.16l-0.9 0.17q2.46 0.77 5.36 1.18c5.86 0.82 12.47 0.38 19.36-1.12m-25.3-0.26q0.45-0.07 0.9-0.17c-6.37-2.16-10.37-6.19-11.92-11.42l-1.1-0.03c1.58 5.33 5.65 9.43 12.11 11.62m-12.24-12.1l1.1 0.03c-1.4-5.31-0.33-11.82 3.3-18.85l-1.05-0.34c-3.69 7.15-4.77 13.76-3.35 19.16m3.7-19.8q0.52 0.16 1.03 0.34a61 61 0 0 1 7.47-10.73 88 88 0 0 1 10.88-10.6l-0.73-0.71A89 89 0 0 0 190.06 447.86 62 62 0 0 0 182.46 458.77m19.38-22.28l0.73 0.71a107 107 0 0 1 26.26-15.53l-0.29-0.97a109 109 0 0 0-26.7 15.79m27.54-16.13q0.16 0.49 0.28 0.98c9.22-3.7 18.51-5.8 26.78-5.85l0.17-1.08c-8.41 0.05-17.85 2.2-27.23 5.95m28-5.94l-0.19 1.07q2.87 0.03 5.55 0.4c5.88 0.82 10.39 2.85 13.48 5.78l0.5-0.96c-3.15-3-7.73-5.05-13.7-5.9q-2.73-0.37-5.65-0.4m19.7 6.65l-0.5 0.96c3.9 3.93 5.37 9.38 4.33 15.7l0.57-0.7c1.06-6.43-0.44-11.97-4.4-15.96m4.3 16.54l-0.57 0.7C279.61 444.67 275.89 451.93 269.53 459.36l0.38-0.35C276.38 451.46 280.16 444.09 281.37 437.6" style="fill:none;stroke:#1d1d1b;stroke-width:2;stroke-linecap:butt;stroke-linejoin:miter;stroke-miterlimit:10;stroke-dasharray:none;stroke-opacity:1"/><path d="M256.59 465.72l-0.6 0.12a51 51 0 0 1-12.2 10.02l0.16 0.25A52 52 0 0 0 256.59 465.72m-13.06 10.65l-0.14-0.26a52 52 0 0 1-14.28 5.8l-0.39 0.47a53 53 0 0 0 14.8-6.02m-15.24 6.11l0.4-0.47c-3.52 0.76-6.91 0.99-9.92 0.57q-1.48-0.21-2.74-0.6l-0.87 0.47q1.3 0.4 2.84 0.63c3.12 0.43 6.63 0.2 10.3-0.6m-13.46-0.13l0.89-0.48c-3.32-1.12-5.4-3.22-6.21-5.95l-1.11 0.25c0.83 2.83 3 5 6.43 6.18m-6.5-6.44l1.1-0.24c-0.72-2.77-0.16-6.16 1.73-9.82l-1.05-0.13c-1.97 3.8-2.54 7.32-1.79 10.2M210.29 465.36l1.04 0.13q1.46-2.72 3.9-5.6a46 46 0 0 1 5.67-5.52l-0.7-0.54a47 47 0 0 0-5.88 5.73 33 33 0 0 0-4.03 5.8M220.59 453.52l0.68 0.56a56 56 0 0 1 13.68-8.1l-0.17-0.85a58 58 0 0 0-14.2 8.4m14.65-8.58l0.16 0.86c4.8-1.92 9.64-3.02 13.95-3.05l0.37-0.97c-4.47 0.02-9.5 1.17-14.48 3.16m14.88-3.16l-0.37 0.97q1.49 0.02 2.89 0.21c3.06 0.43 5.4 1.49 7.02 3.02l0.74-0.86c-1.67-1.59-4.1-2.68-7.28-3.13q-1.45-0.2-3-0.21M260.59 445.32l-0.75 0.85c2.02 2.05 2.8 4.89 2.25 8.18l0.83-0.55C263.49 450.39 262.69 447.44 260.59 445.32m2.28 8.8l-0.83 0.53C261.57 456.62 260.69 460.31 256.16 465.62L256.79 465.5C260.21 461.48 262.23 457.57 262.87 454.12" style="fill:none;stroke:#1d1d1b;stroke-width:2;stroke-linecap:butt;stroke-linejoin:miter;stroke-miterlimit:10;stroke-dasharray:none;stroke-opacity:1"/><path d="M243.8 475.86l0.16 0.25C244.98 477.74 245.72 478.91 245.8 479.01l-0.78 0.46q0.15-0.05-1.5-3.1L243.38 476.1a540 540 0 0 0-5.83-10.31L243.8 475.86" style="fill:none;stroke:#1d1d1b;stroke-width:2;stroke-linecap:butt;stroke-linejoin:miter;stroke-miterlimit:10;stroke-dasharray:none;stroke-opacity:1"/><path d="M229.1 481.9l-0.39 0.47C225.4 486.36 221.65 489.1 217.61 490.6a21 21 0 0 1-2.83 0.84l-1.15 0.25a23 23 0 0 0 3.16-0.9C220.95 489.24 224.83 486.47 228.27 482.47l0.4-0.49c3.44-4.13 6.44-9.52 8.87-16.2C234.98 472.37 233.44 476.33 229.1 481.9" style="fill:none;stroke:#1d1d1b;stroke-width:2;stroke-linecap:butt;stroke-linejoin:miter;stroke-miterlimit:10;stroke-dasharray:none;stroke-opacity:1"/><path d="M216.01 481.96l-0.87 0.48a82 82 0 0 1-23.55 8.44 69 69 0 0 1-23.32 0.44 65 65 0 0 1-9.75-2.3l-2.32-0.77A66 66 0 0 0 168.31 491.18a71 71 0 0 0 23.58-0.66A83 83 0 0 0 215.71 481.86a102 102 0 0 0 21.84-16.06A101 101 0 0 1 216.01 481.96" style="fill:none;stroke:#1d1d1b;stroke-width:2;stroke-linecap:butt;stroke-linejoin:miter;stroke-miterlimit:10;stroke-dasharray:none;stroke-opacity:1"/><path d="M209.5 475.9l-1.11 0.25a124 124 0 0 1-29.5 2.91 116 116 0 0 1-28.2-4.1A101 101 0 0 1 125.53 464.2a85 85 0 0 1-20.36-17.05 78 78 0 0 1-7.57-10.33 75 75 0 0 1-7.8-17.38l-0.84-2.96a72 72 0 0 0 2.72 8.17 75 75 0 0 0 5.68 11.28 79 79 0 0 0 8.22 11.1 86 86 0 0 0 20.6 16.89A102 102 0 0 0 151.52 474.57a117 117 0 0 0 28.34 4.04A125 125 0 0 0 209.43 475.65c9.54-2.12 19-5.39 28.11-9.86A126 126 0 0 1 209.5 475.9" style="fill:none;stroke:#1d1d1b;stroke-width:2;stroke-linecap:butt;stroke-linejoin:miter;stroke-miterlimit:10;stroke-dasharray:none;stroke-opacity:1"/><path d="M211.15 465.83l-1.05-0.12a145 145 0 0 1-27.99-6.3A163 163 0 0 1 155.15 447.76c-8.3-4.52-16.2-9.74-23.42-15.54l-0.84-0.68a132 132 0 0 1-19.88-19.97 108 108 0 0 1-7.5-10.7 90 90 0 0 1-6.1-11.76 66 66 0 0 1-5.36-21.68 49 49 0 0 1 2.66-19.45q0.96-2.66 2.24-5.17l0.72-1.36a43 43 0 0 0-2.73 6.32 48 48 0 0 0-2.27 19.37 67 67 0 0 0 5.71 21.64q2.38 5.4 5.74 10.91a109 109 0 0 0 8.15 11.52A134 134 0 0 0 131.45 430.45l0.85 0.7a161 161 0 0 0 24.3 16.24A165 165 0 0 0 183.49 459.13 145 145 0 0 0 211.32 465.5C220.27 466.6 229.09 466.73 237.55 465.8A113 113 0 0 1 211.15 465.83" style="fill:none;stroke:#1d1d1b;stroke-width:2;stroke-linecap:butt;stroke-linejoin:miter;stroke-miterlimit:10;stroke-dasharray:none;stroke-opacity:1"/><path d="M220.9 454.38l-0.7-0.55A273 273 0 0 1 201.87 437.78l-0.74-0.7a394 394 0 0 1-19.66-20.26 438 438 0 0 1-18.3-21.57l-0.68-0.87a387 387 0 0 1-17.06-23.28q-3.78-5.6-7.15-11.11a235 235 0 0 1-6.1-10.51l-0.41-0.78a131 131 0 0 1-8.27-18.24c-1.76-5.06-2.66-9.34-2.72-12.74v-0.4c0.01-3.32 0.87-5.78 2.56-7.27l0.13-0.1 0.76-0.63-0.17 0.14c-1.59 1.41-2.35 3.8-2.29 7.06l0.02 0.38c0.13 3.34 1.1 7.56 2.9 12.58l0.22 0.6a138 138 0 0 0 8.17 17.55l0.42 0.78q2.73 4.99 6.1 10.5a322 322 0 0 0 7.73 12 411 411 0 0 0 17.04 23.36A465 465 0 0 0 183.2 416.82a417 417 0 0 0 19.38 20.38A286 286 0 0 0 221.27 454.08c5.79 4.73 11.28 8.7 16.28 11.72A138 138 0 0 1 220.9 454.38" style="fill:none;stroke:#1d1d1b;stroke-width:2;stroke-linecap:butt;stroke-linejoin:miter;stroke-miterlimit:10;stroke-dasharray:none;stroke-opacity:1"/><path d="M234.95 445.99l-0.17-0.86a270 270 0 0 0-6.25-24.42 392 392 0 0 0-8.72-25.54l-0.38-1.02a441 441 0 0 0-11.36-27 390 390 0 0 0-12.47-24.79l-0.52-0.92q-3.28-5.9-6.64-11.41a238 238 0 0 0-7.1-10.94 133 133 0 0 0-12.05-15.26l-0.44-0.46c-3.71-3.9-7.11-6.68-10.11-8.32l-0.36-0.19q-4.47-2.32-7.64-1.18l-0.17 0.07 0.9-0.36 0.12-0.05c2.2-0.82 4.89-0.46 7.96 1.05l0.36 0.19q4.67 2.4 10.34 8.22l0.44 0.46a127 127 0 0 1 12.18 15.2l0.5 0.74q3.24 4.7 6.62 10.2a289 289 0 0 1 7.14 12.34 369 369 0 0 1 12.8 25.85 416 416 0 0 1 10.67 26.08l0.37 1.03a372 372 0 0 1 8.69 26.64A257 257 0 0 1 235.23 444.95l0.15 0.86c1.3 7.36 2.06 14.1 2.17 20A135 135 0 0 0 234.95 445.99" style="fill:none;stroke:#1d1d1b;stroke-width:2;stroke-linecap:butt;stroke-linejoin:miter;stroke-miterlimit:10;stroke-dasharray:none;stroke-opacity:1"/><path d="M249.34 442.76l0.36-0.97a141 141 0 0 0 6.9-27.37 161 161 0 0 0-1.85-57.73 133 133 0 0 0-8.82-26.65q-2.76-6.01-6.12-11.53a92 92 0 0 0-7.7-10.8 68 68 0 0 0-16.82-14.75 49 49 0 0 0-18.4-6.73 44 44 0 0 0-6.45-0.45h1.74a45 45 0 0 1 6.48 0.56 50 50 0 0 1 18.57 7.03 68 68 0 0 1 16.84 15.05 91 91 0 0 1 7.13 10.1 108 108 0 0 1 6.54 12.47 131 131 0 0 1 8.5 26.76 155 155 0 0 1 3.13 28.78 159 159 0 0 1-2.18 28.96A140 140 0 0 1 249.73 442.76a109 109 0 0 1-12.18 23.04A109 109 0 0 0 249.34 442.76" style="fill:none;stroke:#1d1d1b;stroke-width:2;stroke-linecap:butt;stroke-linejoin:miter;stroke-miterlimit:10;stroke-dasharray:none;stroke-opacity:1"/><path d="M259.65 445.99l0.74-0.86a121 121 0 0 0 16.32-24.42 112 112 0 0 0 9.43-26.56 98 98 0 0 0 2.04-27 84 84 0 0 0-5.83-25.7 78 78 0 0 0-5.75-11.42 75 75 0 0 0-12.23-15.15l2.26 2.21 2.5 2.64q0.3 0.38 0.64 0.74a77 77 0 0 1 13.6 22.54 83 83 0 0 1 5.48 25.74 96 96 0 0 1-2.44 26.9 111 111 0 0 1-9.83 26.38A120 120 0 0 1 259.84 446.17c-7.4 7.75-11.11 11.64-22.29 19.63A124 124 0 0 0 259.65 445.99" style="fill:none;stroke:#1d1d1b;stroke-width:2;stroke-linecap:butt;stroke-linejoin:miter;stroke-miterlimit:10;stroke-dasharray:none;stroke-opacity:1"/><path d="M262.09 454.35l0.83-0.55a81 81 0 0 0 18.55-16.78 68 68 0 0 0 11.26-20.29 63 63 0 0 0 2.64-10.6l-0.37 2.18A62 62 0 0 1 292.29 418.35a67 67 0 0 1-11.5 19.96A80 80 0 0 1 262.04 454.65a101 101 0 0 1-24.5 11.15C246.53 462.58 252.45 460.46 262.09 454.35" style="fill:none;stroke:#1d1d1b;stroke-width:2;stroke-linecap:butt;stroke-linejoin:miter;stroke-miterlimit:10;stroke-dasharray:none;stroke-opacity:1"/><path d="M271.72 457.14l-0.46 0.54a22 22 0 0 1-2.08 2.1C265.94 462.62 261.72 464.64 256.58 465.71l-0.6 0.12c-5.23 1-11.4 1.02-18.43-0.04C253.68 468.04 265.27 464.68 271.72 457.14" style="fill:none;stroke:#1d1d1b;stroke-width:2;stroke-linecap:butt;stroke-linejoin:miter;stroke-miterlimit:10;stroke-dasharray:none;stroke-opacity:1"/></g></svg>